<svg width="30" height="30" viewBox="0 0 30 30" fill="#ffc94b" xmlns="http://www.w3.org/2000/svg">
	<path d="M27.5005 15.8348C27.3908 15.8354 27.2821 15.8144 27.1806 15.7729C27.0791 15.7315 26.9867 15.6703 26.9088 15.5931L15.0005 3.67644L3.09218 15.5931C2.93276 15.7296 2.7277 15.801 2.51797 15.7929C2.30824 15.7848 2.10929 15.6978 1.96088 15.5494C1.81246 15.401 1.72552 15.2021 1.71742 14.9923C1.70932 14.7826 1.78066 14.5775 1.91718 14.4181L14.4172 1.91811C14.5733 1.7629 14.7845 1.67578 15.0047 1.67578C15.2248 1.67578 15.436 1.7629 15.5922 1.91811L28.0922 14.4181C28.2069 14.5351 28.2845 14.6833 28.3154 14.8442C28.3463 15.005 28.3292 15.1714 28.266 15.3226C28.2029 15.4738 28.0966 15.603 27.9605 15.6941C27.8243 15.7852 27.6643 15.8341 27.5005 15.8348Z"></path>
	<path d="M15.001 6.49219L5.00098 16.5255V26.6672C5.00098 27.1092 5.17657 27.5331 5.48913 27.8457C5.80169 28.1583 6.22562 28.3339 6.66764 28.3339H12.501V20.0005H17.501V28.3339H23.3343C23.7763 28.3339 24.2003 28.1583 24.5128 27.8457C24.8254 27.5331 25.001 27.1092 25.001 26.6672V16.4672L15.001 6.49219Z"></path>
</svg>